<mxfile host="app.diagrams.net" modified="2024-05-11T19:35:13.185Z" agent="Mozilla/5.0 (Windows NT 10.0; Win64; x64) AppleWebKit/537.36 (KHTML, like Gecko) Chrome/124.0.0.0 Safari/537.36" etag="nrYWVN2fXRGEGB3-GvzW" version="24.4.0" type="google">
  <diagram name="Página-1" id="huWKDMLR1q8-F8mlbqOF">
    <mxGraphModel grid="0" page="0" gridSize="10" guides="1" tooltips="1" connect="1" arrows="1" fold="1" pageScale="1" pageWidth="850" pageHeight="1100" math="0" shadow="0">
      <root>
        <mxCell id="0" />
        <mxCell id="1" parent="0" />
        <mxCell id="i3-7gBSSbkpgTExW8tIO-52" value="ADM" style="shape=umlActor;verticalLabelPosition=bottom;verticalAlign=top;html=1;" vertex="1" parent="1">
          <mxGeometry x="59" y="-797" width="30" height="60" as="geometry" />
        </mxCell>
        <mxCell id="i3-7gBSSbkpgTExW8tIO-159" value="" style="html=1;overflow=block;blockSpacing=1;whiteSpace=wrap;fontSize=13;spacing=0;strokeOpacity=100;fillOpacity=100;rounded=1;absoluteArcSize=1;arcSize=9;strokeWidth=1.5;lucidId=yc6A~jbFyM9d;" vertex="1" parent="1">
          <mxGeometry x="476" y="-700" width="30" height="610" as="geometry" />
        </mxCell>
        <mxCell id="i3-7gBSSbkpgTExW8tIO-103" value="" style="html=1;overflow=block;blockSpacing=1;whiteSpace=wrap;fontSize=13;spacing=0;strokeOpacity=100;fillOpacity=100;rounded=1;absoluteArcSize=1;arcSize=9;strokeWidth=1.5;lucidId=yc6AQb-W0V8D;" vertex="1" parent="1">
          <mxGeometry x="1229" y="-196" width="30" height="45" as="geometry" />
        </mxCell>
        <mxCell id="i3-7gBSSbkpgTExW8tIO-164" value="Boundary Object" style="shape=umlBoundary;whiteSpace=wrap;html=1;" vertex="1" parent="1">
          <mxGeometry x="961" y="-812" width="100" height="80" as="geometry" />
        </mxCell>
        <mxCell id="i3-7gBSSbkpgTExW8tIO-1" value="" style="group;dropTarget=0;pointerEvents=0;" vertex="1" parent="1">
          <mxGeometry x="31" y="-808" width="1263" height="810" as="geometry" />
        </mxCell>
        <mxCell id="i3-7gBSSbkpgTExW8tIO-55" value="" style="html=1;overflow=block;blockSpacing=1;whiteSpace=wrap;fontSize=13;spacing=0;strokeOpacity=100;fillOpacity=100;rounded=1;absoluteArcSize=1;arcSize=9;strokeWidth=1.5;lucidId=yc6A~jbFyM9d;" vertex="1" parent="i3-7gBSSbkpgTExW8tIO-1">
          <mxGeometry x="27" y="106" width="30" height="610" as="geometry" />
        </mxCell>
        <mxCell id="i3-7gBSSbkpgTExW8tIO-4" value="Tela Inicial" style="html=1;overflow=block;blockSpacing=1;whiteSpace=wrap;fontSize=16.7;spacing=3.8;strokeOpacity=100;fillOpacity=100;rounded=1;absoluteArcSize=1;arcSize=9;strokeWidth=1.5;lucidId=yc6AQkwq9Kp~;" vertex="1" parent="i3-7gBSSbkpgTExW8tIO-1">
          <mxGeometry x="180" width="106" height="75" as="geometry" />
        </mxCell>
        <mxCell id="i3-7gBSSbkpgTExW8tIO-8" value="Servidor de Relatórios" style="html=1;overflow=block;blockSpacing=1;whiteSpace=wrap;fontSize=16.7;spacing=3.8;strokeOpacity=100;fillOpacity=100;rounded=1;absoluteArcSize=1;arcSize=9;strokeWidth=1.5;lucidId=yc6A6PXsyQOU;" vertex="1" parent="i3-7gBSSbkpgTExW8tIO-1">
          <mxGeometry x="626" width="193" height="75" as="geometry" />
        </mxCell>
        <mxCell id="i3-7gBSSbkpgTExW8tIO-12" value="Impressora" style="html=1;overflow=block;blockSpacing=1;whiteSpace=wrap;fontSize=16.7;spacing=3.8;strokeOpacity=100;fillOpacity=100;rounded=1;absoluteArcSize=1;arcSize=9;strokeWidth=1.5;lucidId=yc6AyFyVfaFy;" vertex="1" parent="i3-7gBSSbkpgTExW8tIO-1">
          <mxGeometry x="1151" width="112" height="75" as="geometry" />
        </mxCell>
        <mxCell id="i3-7gBSSbkpgTExW8tIO-18" value="" style="html=1;jettySize=18;whiteSpace=wrap;fontSize=13;strokeColor=#5E5E5E;dashed=1;fixDash=1;strokeWidth=1.5;rounded=0;startArrow=none;endArrow=none;exitX=0.5;exitY=1.01;exitPerimeter=0;entryX=0.5;entryY=-0.01;entryPerimeter=0;lucidId=yc6AegvPnYw_;" edge="1" parent="i3-7gBSSbkpgTExW8tIO-1" source="i3-7gBSSbkpgTExW8tIO-189">
          <mxGeometry width="100" height="100" relative="1" as="geometry">
            <Array as="points" />
            <mxPoint x="233" y="734.25" as="targetPoint" />
          </mxGeometry>
        </mxCell>
        <mxCell id="i3-7gBSSbkpgTExW8tIO-20" value="" style="html=1;jettySize=18;whiteSpace=wrap;fontSize=13;dashed=1;fixDash=1;strokeWidth=1.5;rounded=0;startArrow=none;endArrow=none;exitX=0.5;exitY=1.01;exitPerimeter=0;entryX=0.5;entryY=-0.01;entryPerimeter=0;lucidId=yc6ATiEzQoBL;" edge="1" parent="i3-7gBSSbkpgTExW8tIO-1" source="i3-7gBSSbkpgTExW8tIO-8">
          <mxGeometry width="100" height="100" relative="1" as="geometry">
            <Array as="points" />
            <mxPoint x="722.5" y="734.25" as="targetPoint" />
          </mxGeometry>
        </mxCell>
        <mxCell id="i3-7gBSSbkpgTExW8tIO-21" value="" style="html=1;jettySize=18;whiteSpace=wrap;fontSize=13;strokeColor=#5E5E5E;dashed=1;fixDash=1;strokeWidth=1.5;rounded=0;startArrow=none;endArrow=none;exitX=0.5;exitY=1.01;exitPerimeter=0;entryX=0.5;entryY=-0.01;entryPerimeter=0;lucidId=yc6AqLot4xDY;" edge="1" parent="i3-7gBSSbkpgTExW8tIO-1">
          <mxGeometry width="100" height="100" relative="1" as="geometry">
            <Array as="points" />
            <mxPoint x="985" y="75.75" as="sourcePoint" />
            <mxPoint x="985" y="734.25" as="targetPoint" />
          </mxGeometry>
        </mxCell>
        <mxCell id="i3-7gBSSbkpgTExW8tIO-22" value="" style="html=1;jettySize=18;whiteSpace=wrap;fontSize=13;strokeColor=#5E5E5E;dashed=1;fixDash=1;strokeWidth=1.5;rounded=0;startArrow=none;endArrow=none;exitX=0.5;exitY=1.01;exitPerimeter=0;entryX=0.5;entryY=-0.01;entryPerimeter=0;lucidId=yc6AI-AOAJ6W;" edge="1" parent="i3-7gBSSbkpgTExW8tIO-1" source="i3-7gBSSbkpgTExW8tIO-12">
          <mxGeometry width="100" height="100" relative="1" as="geometry">
            <Array as="points" />
            <mxPoint x="1206.9999999999995" y="734.25" as="targetPoint" />
          </mxGeometry>
        </mxCell>
        <mxCell id="i3-7gBSSbkpgTExW8tIO-15" value="" style="html=1;overflow=block;blockSpacing=1;whiteSpace=wrap;fontSize=13;spacing=0;strokeOpacity=100;fillOpacity=100;rounded=1;absoluteArcSize=1;arcSize=9;strokeWidth=1.5;lucidId=yc6AQb-W0V8D;" vertex="1" parent="i3-7gBSSbkpgTExW8tIO-1">
          <mxGeometry x="970" y="345" width="30" height="45" as="geometry" />
        </mxCell>
        <mxCell id="i3-7gBSSbkpgTExW8tIO-14" value="" style="html=1;overflow=block;blockSpacing=1;whiteSpace=wrap;fontSize=13;spacing=0;strokeOpacity=100;fillOpacity=100;rounded=1;absoluteArcSize=1;arcSize=9;strokeWidth=1.5;lucidId=yc6A~jbFyM9d;" vertex="1" parent="i3-7gBSSbkpgTExW8tIO-1">
          <mxGeometry x="708" y="300" width="30" height="135" as="geometry" />
        </mxCell>
        <mxCell id="i3-7gBSSbkpgTExW8tIO-23" value="" style="html=1;jettySize=18;whiteSpace=wrap;fontSize=13;strokeColor=#5E5E5E;strokeWidth=1.5;rounded=0;startArrow=none;endArrow=block;endFill=1;lucidId=yc6AkUZ1vJiD;exitX=1.044;exitY=0.026;exitDx=0;exitDy=0;exitPerimeter=0;entryX=0.009;entryY=0.317;entryDx=0;entryDy=0;entryPerimeter=0;" edge="1" parent="i3-7gBSSbkpgTExW8tIO-1" source="i3-7gBSSbkpgTExW8tIO-55" target="i3-7gBSSbkpgTExW8tIO-189">
          <mxGeometry width="100" height="100" relative="1" as="geometry">
            <Array as="points" />
            <mxPoint x="45" y="121" as="sourcePoint" />
            <mxPoint x="234" y="121" as="targetPoint" />
          </mxGeometry>
        </mxCell>
        <mxCell id="i3-7gBSSbkpgTExW8tIO-24" value="&lt;font style=&quot;font-size: 12px;&quot;&gt;acessar&lt;/font&gt;" style="text;html=1;resizable=0;labelBackgroundColor=default;align=center;verticalAlign=middle;fontStyle=1;fontSize=13.3;" vertex="1" parent="i3-7gBSSbkpgTExW8tIO-23">
          <mxGeometry relative="1" as="geometry">
            <mxPoint as="offset" />
          </mxGeometry>
        </mxCell>
        <mxCell id="i3-7gBSSbkpgTExW8tIO-25" value="" style="html=1;jettySize=18;whiteSpace=wrap;fontSize=13;strokeColor=#5E5E5E;strokeWidth=1.5;rounded=0;startArrow=none;endArrow=block;endFill=1;lucidId=yc6AXLfy0O_X;exitX=1.12;exitY=0.893;exitDx=0;exitDy=0;exitPerimeter=0;" edge="1" parent="i3-7gBSSbkpgTExW8tIO-1" source="i3-7gBSSbkpgTExW8tIO-189">
          <mxGeometry width="100" height="100" relative="1" as="geometry">
            <Array as="points" />
            <mxPoint x="57" y="166" as="sourcePoint" />
            <mxPoint x="442" y="165" as="targetPoint" />
          </mxGeometry>
        </mxCell>
        <mxCell id="i3-7gBSSbkpgTExW8tIO-26" value="&lt;font style=&quot;font-size: 10px;&quot;&gt;Navega até Tela de Produção&lt;/font&gt;" style="text;html=1;resizable=0;labelBackgroundColor=default;align=center;verticalAlign=middle;fontStyle=1;fontSize=13.3;" vertex="1" parent="i3-7gBSSbkpgTExW8tIO-25">
          <mxGeometry relative="1" as="geometry">
            <mxPoint as="offset" />
          </mxGeometry>
        </mxCell>
        <mxCell id="i3-7gBSSbkpgTExW8tIO-29" value="" style="html=1;jettySize=18;whiteSpace=wrap;fontSize=13;strokeColor=#5E5E5E;strokeWidth=1.5;rounded=0;startArrow=none;endArrow=block;endFill=1;lucidId=yc6A8zZaEGeU;" edge="1" parent="i3-7gBSSbkpgTExW8tIO-1">
          <mxGeometry width="100" height="100" relative="1" as="geometry">
            <Array as="points" />
            <mxPoint x="57" y="256" as="sourcePoint" />
            <mxPoint x="442" y="255" as="targetPoint" />
          </mxGeometry>
        </mxCell>
        <mxCell id="i3-7gBSSbkpgTExW8tIO-30" value="Clica para gerar relatório" style="text;html=1;resizable=0;labelBackgroundColor=default;align=center;verticalAlign=middle;fontStyle=1;fontSize=13.3;" vertex="1" parent="i3-7gBSSbkpgTExW8tIO-29">
          <mxGeometry relative="1" as="geometry">
            <mxPoint as="offset" />
          </mxGeometry>
        </mxCell>
        <mxCell id="i3-7gBSSbkpgTExW8tIO-31" value="" style="html=1;jettySize=18;whiteSpace=wrap;fontSize=13;strokeColor=#5E5E5E;strokeWidth=1.5;rounded=0;startArrow=none;endArrow=block;endFill=1;entryX=0.01;entryY=0.01;entryPerimeter=0;lucidId=yc6ADAGsO76m;" edge="1" parent="i3-7gBSSbkpgTExW8tIO-1" target="i3-7gBSSbkpgTExW8tIO-14">
          <mxGeometry width="100" height="100" relative="1" as="geometry">
            <Array as="points" />
            <mxPoint x="471" y="300" as="sourcePoint" />
          </mxGeometry>
        </mxCell>
        <mxCell id="i3-7gBSSbkpgTExW8tIO-32" value="Solicita geração de relatório" style="text;html=1;resizable=0;labelBackgroundColor=default;align=center;verticalAlign=middle;fontStyle=1;fontSize=13.3;" vertex="1" parent="i3-7gBSSbkpgTExW8tIO-31">
          <mxGeometry relative="1" as="geometry">
            <mxPoint as="offset" />
          </mxGeometry>
        </mxCell>
        <mxCell id="i3-7gBSSbkpgTExW8tIO-33" value="" style="html=1;jettySize=18;whiteSpace=wrap;fontSize=13;strokeColor=#5E5E5E;strokeWidth=1.5;rounded=0;startArrow=none;endArrow=block;endFill=1;exitX=1.025;exitY=0.325;exitPerimeter=0;entryX=0.021;entryY=0.021;entryPerimeter=0;lucidId=yc6AxwZkZ~2_;" edge="1" parent="i3-7gBSSbkpgTExW8tIO-1" source="i3-7gBSSbkpgTExW8tIO-14" target="i3-7gBSSbkpgTExW8tIO-15">
          <mxGeometry width="100" height="100" relative="1" as="geometry">
            <Array as="points" />
          </mxGeometry>
        </mxCell>
        <mxCell id="i3-7gBSSbkpgTExW8tIO-34" value="Requisita dados" style="text;html=1;resizable=0;labelBackgroundColor=default;align=center;verticalAlign=middle;fontStyle=1;fontSize=13.3;" vertex="1" parent="i3-7gBSSbkpgTExW8tIO-33">
          <mxGeometry relative="1" as="geometry">
            <mxPoint as="offset" />
          </mxGeometry>
        </mxCell>
        <mxCell id="i3-7gBSSbkpgTExW8tIO-35" value="" style="html=1;jettySize=18;whiteSpace=wrap;fontSize=13;strokeColor=#5E5E5E;strokeWidth=1.5;rounded=0;startArrow=none;endArrow=block;endFill=1;exitX=0.021;exitY=0.979;exitPerimeter=0;entryX=1.025;entryY=0.675;entryPerimeter=0;lucidId=yc6AUX6Ixotj;" edge="1" parent="i3-7gBSSbkpgTExW8tIO-1" source="i3-7gBSSbkpgTExW8tIO-15" target="i3-7gBSSbkpgTExW8tIO-14">
          <mxGeometry width="100" height="100" relative="1" as="geometry">
            <Array as="points" />
          </mxGeometry>
        </mxCell>
        <mxCell id="i3-7gBSSbkpgTExW8tIO-36" value="Retorna dados" style="text;html=1;resizable=0;labelBackgroundColor=default;align=center;verticalAlign=middle;fontStyle=1;fontSize=13.3;" vertex="1" parent="i3-7gBSSbkpgTExW8tIO-35">
          <mxGeometry relative="1" as="geometry">
            <mxPoint as="offset" />
          </mxGeometry>
        </mxCell>
        <mxCell id="i3-7gBSSbkpgTExW8tIO-37" value="" style="html=1;jettySize=18;whiteSpace=wrap;fontSize=13;strokeColor=#5E5E5E;strokeWidth=1.5;rounded=0;startArrow=none;endArrow=block;endFill=1;exitX=0.01;exitY=0.99;exitPerimeter=0;lucidId=yc6AHO-9m8hk;" edge="1" parent="i3-7gBSSbkpgTExW8tIO-1" source="i3-7gBSSbkpgTExW8tIO-14">
          <mxGeometry width="100" height="100" relative="1" as="geometry">
            <Array as="points" />
            <mxPoint x="471" y="435" as="targetPoint" />
          </mxGeometry>
        </mxCell>
        <mxCell id="i3-7gBSSbkpgTExW8tIO-38" value="Envia relatório de produção" style="text;html=1;resizable=0;labelBackgroundColor=default;align=center;verticalAlign=middle;fontStyle=1;fontSize=13.3;" vertex="1" parent="i3-7gBSSbkpgTExW8tIO-37">
          <mxGeometry relative="1" as="geometry">
            <mxPoint as="offset" />
          </mxGeometry>
        </mxCell>
        <mxCell id="i3-7gBSSbkpgTExW8tIO-39" value="" style="html=1;jettySize=18;whiteSpace=wrap;fontSize=13;strokeColor=#5E5E5E;strokeWidth=1.5;rounded=0;startArrow=none;endArrow=block;endFill=1;lucidId=yc6AM_63Jkcw;entryX=1.058;entryY=0.612;entryDx=0;entryDy=0;entryPerimeter=0;" edge="1" parent="i3-7gBSSbkpgTExW8tIO-1" target="i3-7gBSSbkpgTExW8tIO-55">
          <mxGeometry width="100" height="100" relative="1" as="geometry">
            <Array as="points" />
            <mxPoint x="441" y="480" as="sourcePoint" />
            <mxPoint x="61" y="480" as="targetPoint" />
          </mxGeometry>
        </mxCell>
        <mxCell id="i3-7gBSSbkpgTExW8tIO-40" value="Exibe relatório" style="text;html=1;resizable=0;labelBackgroundColor=default;align=center;verticalAlign=middle;fontStyle=1;fontSize=13.3;" vertex="1" parent="i3-7gBSSbkpgTExW8tIO-39">
          <mxGeometry relative="1" as="geometry">
            <mxPoint as="offset" />
          </mxGeometry>
        </mxCell>
        <mxCell id="i3-7gBSSbkpgTExW8tIO-41" value="" style="html=1;jettySize=18;whiteSpace=wrap;fontSize=13;strokeColor=#5E5E5E;strokeWidth=1.5;rounded=0;startArrow=none;endArrow=block;endFill=1;lucidId=yc6A0LSYMtmb;entryX=0.013;entryY=0.688;entryDx=0;entryDy=0;entryPerimeter=0;" edge="1" parent="i3-7gBSSbkpgTExW8tIO-1" target="i3-7gBSSbkpgTExW8tIO-159">
          <mxGeometry width="100" height="100" relative="1" as="geometry">
            <Array as="points" />
            <mxPoint x="56" y="524" as="sourcePoint" />
            <mxPoint x="456" y="525" as="targetPoint" />
          </mxGeometry>
        </mxCell>
        <mxCell id="i3-7gBSSbkpgTExW8tIO-42" value="Escolhe &quot;Imprimir&quot; ou &quot;Salvar&quot;" style="text;html=1;resizable=0;labelBackgroundColor=default;align=center;verticalAlign=middle;fontStyle=1;fontSize=13.3;" vertex="1" parent="i3-7gBSSbkpgTExW8tIO-41">
          <mxGeometry relative="1" as="geometry">
            <mxPoint as="offset" />
          </mxGeometry>
        </mxCell>
        <mxCell id="i3-7gBSSbkpgTExW8tIO-43" value="" style="html=1;jettySize=18;whiteSpace=wrap;fontSize=13;strokeColor=#5E5E5E;strokeWidth=1.5;rounded=0;startArrow=none;endArrow=block;endFill=1;lucidId=yc6A5Qut7ldS;" edge="1" parent="i3-7gBSSbkpgTExW8tIO-1">
          <mxGeometry width="100" height="100" relative="1" as="geometry">
            <Array as="points" />
            <mxPoint x="471" y="629" as="sourcePoint" />
            <mxPoint x="1191" y="634" as="targetPoint" />
          </mxGeometry>
        </mxCell>
        <mxCell id="i3-7gBSSbkpgTExW8tIO-44" value="Envia arquivo para fila de impressão" style="text;html=1;resizable=0;labelBackgroundColor=default;align=center;verticalAlign=middle;fontStyle=1;fontSize=13.3;" vertex="1" parent="i3-7gBSSbkpgTExW8tIO-43">
          <mxGeometry relative="1" as="geometry">
            <mxPoint as="offset" />
          </mxGeometry>
        </mxCell>
        <mxCell id="i3-7gBSSbkpgTExW8tIO-45" value="" style="html=1;jettySize=18;whiteSpace=wrap;fontSize=13;strokeColor=#5E5E5E;strokeWidth=1.5;rounded=0;startArrow=none;endArrow=block;endFill=1;lucidId=yc6AfeXB-Q6I;" edge="1" parent="i3-7gBSSbkpgTExW8tIO-1">
          <mxGeometry width="100" height="100" relative="1" as="geometry">
            <Array as="points" />
            <mxPoint x="441" y="690" as="sourcePoint" />
            <mxPoint x="57" y="690" as="targetPoint" />
          </mxGeometry>
        </mxCell>
        <mxCell id="i3-7gBSSbkpgTExW8tIO-46" value="Permite salvar o relatório" style="text;html=1;resizable=0;labelBackgroundColor=default;align=center;verticalAlign=middle;fontStyle=1;fontSize=13.3;" vertex="1" parent="i3-7gBSSbkpgTExW8tIO-45">
          <mxGeometry relative="1" as="geometry">
            <mxPoint as="offset" />
          </mxGeometry>
        </mxCell>
        <mxCell id="i3-7gBSSbkpgTExW8tIO-16" value="Alternative" style="html=1;blockSpacing=1;whiteSpace=wrap;shape=mxgraph.sysml.package2;xSize=90;overflow=fill;fontSize=13.3;align=left;spacing=0;rounded=1;absoluteArcSize=1;arcSize=9;strokeWidth=1.5;container=1;pointerEvents=0;collapsible=0;recursiveResize=0;lucidId=yc6AFEld1uSy;" vertex="1" parent="i3-7gBSSbkpgTExW8tIO-1">
          <mxGeometry x="2" y="540" width="1243" height="165" as="geometry" />
        </mxCell>
        <mxCell id="i3-7gBSSbkpgTExW8tIO-49" value="" style="line;strokeWidth=1;fillColor=none;align=left;verticalAlign=middle;spacingTop=-1;spacingLeft=3;spacingRight=3;rotatable=0;labelPosition=right;points=[];portConstraint=eastwest;strokeColor=inherit;dashed=1;dashPattern=8 8;" vertex="1" parent="i3-7gBSSbkpgTExW8tIO-16">
          <mxGeometry x="-2" y="111" width="1232" height="8" as="geometry" />
        </mxCell>
        <UserObject label="&lt;span data-lucid-type=&quot;application/vnd.lucid.text&quot; data-lucid-content=&quot;{&amp;quot;t&amp;quot;:&amp;quot;[Imprimir]&amp;quot;,&amp;quot;m&amp;quot;:[{&amp;quot;s&amp;quot;:0,&amp;quot;n&amp;quot;:&amp;quot;c&amp;quot;,&amp;quot;v&amp;quot;:&amp;quot;#282c33ff&amp;quot;,&amp;quot;e&amp;quot;:10},{&amp;quot;s&amp;quot;:0,&amp;quot;n&amp;quot;:&amp;quot;s&amp;quot;,&amp;quot;v&amp;quot;:17.771777177717773,&amp;quot;e&amp;quot;:10}]}&quot;&gt;&lt;span style=&quot;color:#282c33;font-size:13.32883288328833px;&quot;&gt;[Imprimir]&lt;/span&gt;&lt;/span&gt;" link="&lt;span data-lucid-type=&quot;application/vnd.lucid.text&quot; data-lucid-content=&quot;{&amp;quot;t&amp;quot;:&amp;quot;[Imprimir]&amp;quot;,&amp;quot;m&amp;quot;:[{&amp;quot;s&amp;quot;:0,&amp;quot;n&amp;quot;:&amp;quot;c&amp;quot;,&amp;quot;v&amp;quot;:&amp;quot;#282c33ff&amp;quot;,&amp;quot;e&amp;quot;:10},{&amp;quot;s&amp;quot;:0,&amp;quot;n&amp;quot;:&amp;quot;s&amp;quot;,&amp;quot;v&amp;quot;:17.771777177717773,&amp;quot;e&amp;quot;:10}]}&quot;&gt;&lt;span style=&quot;color:#282c33;font-size:13.32883288328833px;&quot;&gt;[Imprimir]&lt;/span&gt;&lt;/span&gt;" id="i3-7gBSSbkpgTExW8tIO-50">
          <mxCell style="text;whiteSpace=wrap;html=1;" vertex="1" parent="i3-7gBSSbkpgTExW8tIO-16">
            <mxGeometry x="41.999411764705854" y="49.00117647058829" width="82" height="38" as="geometry" />
          </mxCell>
        </UserObject>
        <UserObject label="&lt;span data-lucid-type=&quot;application/vnd.lucid.text&quot; data-lucid-content=&quot;{&amp;quot;t&amp;quot;:&amp;quot;[Salvar]&amp;quot;,&amp;quot;m&amp;quot;:[{&amp;quot;s&amp;quot;:0,&amp;quot;n&amp;quot;:&amp;quot;c&amp;quot;,&amp;quot;v&amp;quot;:&amp;quot;#282c33ff&amp;quot;,&amp;quot;e&amp;quot;:8},{&amp;quot;s&amp;quot;:0,&amp;quot;n&amp;quot;:&amp;quot;s&amp;quot;,&amp;quot;v&amp;quot;:17.771777177717773,&amp;quot;e&amp;quot;:8}]}&quot;&gt;&lt;span style=&quot;color:#282c33;font-size:13.32883288328833px;&quot;&gt;[Salvar]&lt;/span&gt;&lt;/span&gt;" link="&lt;span data-lucid-type=&quot;application/vnd.lucid.text&quot; data-lucid-content=&quot;{&amp;quot;t&amp;quot;:&amp;quot;[Salvar]&amp;quot;,&amp;quot;m&amp;quot;:[{&amp;quot;s&amp;quot;:0,&amp;quot;n&amp;quot;:&amp;quot;c&amp;quot;,&amp;quot;v&amp;quot;:&amp;quot;#282c33ff&amp;quot;,&amp;quot;e&amp;quot;:8},{&amp;quot;s&amp;quot;:0,&amp;quot;n&amp;quot;:&amp;quot;s&amp;quot;,&amp;quot;v&amp;quot;:17.771777177717773,&amp;quot;e&amp;quot;:8}]}&quot;&gt;&lt;span style=&quot;color:#282c33;font-size:13.32883288328833px;&quot;&gt;[Salvar]&lt;/span&gt;&lt;/span&gt;" id="i3-7gBSSbkpgTExW8tIO-51">
          <mxCell style="text;whiteSpace=wrap;html=1;" vertex="1" parent="i3-7gBSSbkpgTExW8tIO-16">
            <mxGeometry x="42.00235294117658" y="110.9970588235295" width="71" height="38" as="geometry" />
          </mxCell>
        </UserObject>
        <mxCell id="i3-7gBSSbkpgTExW8tIO-189" value="" style="html=1;overflow=block;blockSpacing=1;whiteSpace=wrap;fontSize=13;spacing=0;strokeOpacity=100;fillOpacity=100;rounded=1;absoluteArcSize=1;arcSize=9;strokeWidth=1.5;lucidId=yc6A~jbFyM9d;" vertex="1" parent="i3-7gBSSbkpgTExW8tIO-1">
          <mxGeometry x="218" y="95" width="30" height="79" as="geometry" />
        </mxCell>
        <mxCell id="i3-7gBSSbkpgTExW8tIO-190" value="" style="html=1;jettySize=18;whiteSpace=wrap;fontSize=13;strokeColor=#5E5E5E;dashed=1;fixDash=1;strokeWidth=1.5;rounded=0;startArrow=none;endArrow=none;exitX=0.5;exitY=1.01;exitPerimeter=0;entryX=0.5;entryY=-0.01;entryPerimeter=0;lucidId=yc6AegvPnYw_;" edge="1" parent="i3-7gBSSbkpgTExW8tIO-1" source="i3-7gBSSbkpgTExW8tIO-4" target="i3-7gBSSbkpgTExW8tIO-189">
          <mxGeometry width="100" height="100" relative="1" as="geometry">
            <Array as="points" />
            <mxPoint x="268" y="-731" as="sourcePoint" />
            <mxPoint x="268" y="-72.75" as="targetPoint" />
          </mxGeometry>
        </mxCell>
        <mxCell id="i3-7gBSSbkpgTExW8tIO-177" style="edgeStyle=none;curved=1;rounded=0;orthogonalLoop=1;jettySize=auto;html=1;entryX=0.5;entryY=0;entryDx=0;entryDy=0;fontSize=12;startSize=8;endSize=8;dashed=1;endArrow=none;endFill=0;" edge="1" parent="1" source="i3-7gBSSbkpgTExW8tIO-6" target="i3-7gBSSbkpgTExW8tIO-159">
          <mxGeometry relative="1" as="geometry" />
        </mxCell>
        <mxCell id="i3-7gBSSbkpgTExW8tIO-6" value="Tela de Produção" style="html=1;overflow=block;blockSpacing=1;whiteSpace=wrap;fontSize=16.7;spacing=3.8;strokeOpacity=100;fillOpacity=100;rounded=1;absoluteArcSize=1;arcSize=9;strokeWidth=1.5;lucidId=yc6AjW84wS4j;" vertex="1" parent="1">
          <mxGeometry x="411.5" y="-807" width="159" height="75" as="geometry" />
        </mxCell>
        <mxCell id="i3-7gBSSbkpgTExW8tIO-199" style="edgeStyle=none;curved=1;rounded=0;orthogonalLoop=1;jettySize=auto;html=1;fontSize=12;startSize=8;endSize=8;dashed=1;endArrow=none;endFill=0;" edge="1" parent="1">
          <mxGeometry relative="1" as="geometry">
            <mxPoint x="490.76" y="-90" as="sourcePoint" />
            <mxPoint x="491" y="-72" as="targetPoint" />
          </mxGeometry>
        </mxCell>
        <mxCell id="i3-7gBSSbkpgTExW8tIO-200" style="edgeStyle=none;curved=1;rounded=0;orthogonalLoop=1;jettySize=auto;html=1;fontSize=12;startSize=8;endSize=8;dashed=1;endArrow=none;endFill=0;" edge="1" parent="1">
          <mxGeometry relative="1" as="geometry">
            <mxPoint x="72" y="-92" as="sourcePoint" />
            <mxPoint x="72.24000000000001" y="-75" as="targetPoint" />
          </mxGeometry>
        </mxCell>
        <mxCell id="i3-7gBSSbkpgTExW8tIO-201" style="edgeStyle=none;curved=1;rounded=0;orthogonalLoop=1;jettySize=auto;html=1;fontSize=12;startSize=8;endSize=8;dashed=1;endArrow=none;endFill=0;" edge="1" parent="1">
          <mxGeometry relative="1" as="geometry">
            <mxPoint x="73" y="-717" as="sourcePoint" />
            <mxPoint x="73.24000000000001" y="-700" as="targetPoint" />
          </mxGeometry>
        </mxCell>
      </root>
    </mxGraphModel>
  </diagram>
</mxfile>
